<svg width="55" height="54" viewBox="0 0 55 54" fill="none" xmlns="http://www.w3.org/2000/svg">
<g clip-path="url(#clip0_8768_13657)">
<path d="M16.0833 54C18.5685 54 20.5833 51.9853 20.5833 49.5C20.5833 47.0147 18.5685 45 16.0833 45C13.598 45 11.5833 47.0147 11.5833 49.5C11.5833 51.9853 13.598 54 16.0833 54Z" fill="#2E3092"/>
<path d="M38.5833 54C41.0685 54 43.0833 51.9853 43.0833 49.5C43.0833 47.0147 41.0685 45 38.5833 45C36.098 45 34.0833 47.0147 34.0833 49.5C34.0833 51.9853 36.098 54 38.5833 54Z" fill="#2E3092"/>
<path d="M52.0833 6.75H47.5833V2.25C47.5833 1.65326 47.3462 1.08097 46.9242 0.65901C46.5023 0.237053 45.93 0 45.3333 0C44.7365 0 44.1642 0.237053 43.7423 0.65901C43.3203 1.08097 43.0833 1.65326 43.0833 2.25V6.75H38.5833C37.9865 6.75 37.4142 6.98705 36.9923 7.40901C36.5703 7.83097 36.3333 8.40326 36.3333 9C36.3333 9.59674 36.5703 10.169 36.9923 10.591C37.4142 11.0129 37.9865 11.25 38.5833 11.25H43.0833V15.75C43.0833 16.3467 43.3203 16.919 43.7423 17.341C44.1642 17.7629 44.7365 18 45.3333 18C45.93 18 46.5023 17.7629 46.9242 17.341C47.3462 16.919 47.5833 16.3467 47.5833 15.75V11.25H52.0833C52.68 11.25 53.2523 11.0129 53.6742 10.591C54.0962 10.169 54.3333 9.59674 54.3333 9C54.3333 8.40326 54.0962 7.83097 53.6742 7.40901C53.2523 6.98705 52.68 6.75 52.0833 6.75Z" fill="#2E3092"/>
<path d="M49.318 21.8835C49.0271 21.8291 48.7283 21.8329 48.4388 21.8948C48.1494 21.9567 47.8752 22.0755 47.632 22.2442C47.3888 22.4128 47.1815 22.6281 47.0221 22.8775C46.8627 23.1269 46.7544 23.4054 46.7035 23.697C46.4229 25.2543 45.604 26.6636 44.39 27.6786C43.176 28.6936 41.6439 29.2498 40.0615 29.25H12.5238L10.4088 11.25H29.5833C30.18 11.25 30.7523 11.0129 31.1742 10.591C31.5962 10.169 31.8333 9.59674 31.8333 9C31.8333 8.40326 31.5962 7.83097 31.1742 7.40901C30.7523 6.98705 30.18 6.75 29.5833 6.75H9.87775L9.78325 5.958C9.58935 4.31685 8.80014 2.80385 7.56517 1.70573C6.33021 0.607622 4.73532 0.000703882 3.08275 0L2.58325 0C1.98651 0 1.41422 0.237053 0.992262 0.65901C0.570305 1.08097 0.333252 1.65326 0.333252 2.25C0.333252 2.84674 0.570305 3.41903 0.992262 3.84099C1.41422 4.26295 1.98651 4.5 2.58325 4.5H3.08275C3.63385 4.50007 4.16576 4.7024 4.57759 5.06861C4.98942 5.43482 5.25252 5.93944 5.317 6.48675L8.413 32.8118C8.73442 35.5495 10.0498 38.074 12.1095 39.906C14.1693 41.738 16.8299 42.7501 19.5865 42.75H43.0833C43.68 42.75 44.2523 42.5129 44.6742 42.091C45.0962 41.669 45.3333 41.0967 45.3333 40.5C45.3333 39.9033 45.0962 39.331 44.6742 38.909C44.2523 38.4871 43.68 38.25 43.0833 38.25H19.5865C18.1904 38.2503 16.8286 37.8176 15.6886 37.0117C14.5487 36.2058 13.6866 35.0662 13.2213 33.75H40.0615C42.6988 33.7503 45.2524 32.8239 47.2762 31.1328C49.3 29.4418 50.6654 27.0934 51.1338 24.498C51.1863 24.2071 51.181 23.9087 51.1182 23.6198C51.0554 23.331 50.9363 23.0573 50.7676 22.8145C50.599 22.5717 50.3842 22.3645 50.1355 22.2048C49.8867 22.045 49.6089 21.9358 49.318 21.8835Z" fill="#2E3092"/>
</g>
<defs>
<clipPath id="clip0_8768_13657">
<rect width="54" height="54" fill="white" transform="translate(0.333252)"/>
</clipPath>
</defs>
</svg>
