<svg width="54" height="54" viewBox="0 0 54 54" fill="none" xmlns="http://www.w3.org/2000/svg">
<g clip-path="url(#clip0_8768_13647)">
<path d="M38.5089 18.1127C37.8638 18.2841 37.284 18.6429 36.8428 19.1438C36.4017 19.6447 36.1189 20.2651 36.0303 20.9267C35.9418 21.5882 36.0513 22.2612 36.3452 22.8605C36.6391 23.4598 37.1041 23.9585 37.6814 24.2935C38.2586 24.6286 38.9223 24.7849 39.5884 24.7428C40.2546 24.7007 40.8933 24.462 41.4238 24.0569C41.9542 23.6518 42.3527 23.0985 42.5688 22.467C42.7848 21.8355 42.8088 21.1541 42.6376 20.5089C42.5239 20.0805 42.3269 19.6786 42.0579 19.3262C41.7888 18.9739 41.453 18.678 41.0696 18.4555C40.6862 18.233 40.2627 18.0882 39.8233 18.0294C39.384 17.9705 38.9373 17.9988 38.5089 18.1127Z" fill="#2E3092"/>
<path d="M27.2589 11.3627C26.6138 11.5341 26.034 11.8929 25.5928 12.3938C25.1517 12.8946 24.8689 13.5151 24.7803 14.1767C24.6918 14.8382 24.8013 15.5112 25.0952 16.1105C25.3891 16.7098 25.8541 17.2085 26.4314 17.5435C27.0086 17.8786 27.6723 18.0349 28.3384 17.9928C29.0046 17.9507 29.6433 17.712 30.1738 17.3069C30.7043 16.9018 31.1027 16.3485 31.3188 15.717C31.5348 15.0855 31.5588 14.4041 31.3876 13.7589C31.2739 13.3305 31.0769 12.9286 30.8079 12.5762C30.5388 12.2239 30.203 11.928 29.8196 11.7055C29.4362 11.483 29.0127 11.3382 28.5733 11.2794C28.134 11.2205 27.6873 11.2488 27.2589 11.3627Z" fill="#2E3092"/>
<path d="M16.0089 18.1127C15.3638 18.2841 14.784 18.6429 14.3428 19.1438C13.9017 19.6447 13.6189 20.2651 13.5303 20.9267C13.4418 21.5882 13.5513 22.2612 13.8452 22.8605C14.1391 23.4598 14.6041 23.9585 15.1814 24.2935C15.7586 24.6286 16.4223 24.7849 17.0884 24.7428C17.7546 24.7007 18.3933 24.462 18.9238 24.0569C19.4543 23.6518 19.8527 23.0985 20.0688 22.467C20.2848 21.8355 20.3088 21.1541 20.1376 20.5089C20.0239 20.0805 19.8269 19.6786 19.5579 19.3262C19.2888 18.9739 18.953 18.678 18.5696 18.4555C18.1862 18.233 17.7627 18.0882 17.3233 18.0294C16.884 17.9705 16.4373 17.9988 16.0089 18.1127Z" fill="#2E3092"/>
<path d="M16.0089 31.6127C15.3638 31.7841 14.784 32.1429 14.3428 32.6438C13.9017 33.1447 13.6189 33.7651 13.5303 34.4267C13.4418 35.0882 13.5513 35.7612 13.8452 36.3605C14.1391 36.9598 14.6041 37.4585 15.1814 37.7935C15.7586 38.1286 16.4223 38.2849 17.0884 38.2428C17.7546 38.2007 18.3933 37.962 18.9238 37.5569C19.4543 37.1518 19.8527 36.5985 20.0688 35.967C20.2848 35.3355 20.3088 34.6541 20.1376 34.0089C20.0239 33.5805 19.8269 33.1786 19.5579 32.8262C19.2888 32.4739 18.953 32.178 18.5696 31.9555C18.1862 31.733 17.7627 31.5882 17.3233 31.5294C16.884 31.4705 16.4373 31.4988 16.0089 31.6127Z" fill="#2E3092"/>
<path d="M28.125 0.0158197C24.5025 -0.110139 20.8917 0.494597 17.5079 1.79398C14.1241 3.09336 11.0365 5.06077 8.42934 7.57893C5.82215 10.0971 3.74869 13.1144 2.33258 16.4511C0.916466 19.7877 0.186693 23.3754 0.186768 27.0001C0.195104 34.1584 3.04242 41.0211 8.10409 46.0827C13.1658 51.1444 20.0285 53.9917 27.1868 54.0001C27.9473 54.0001 28.6943 53.9506 29.4368 53.8876C30.0002 53.8401 30.525 53.5822 30.9069 53.1653C31.2888 52.7484 31.4998 52.203 31.4978 51.6376L31.4258 43.5646C31.4075 41.9693 31.8652 40.4047 32.7403 39.0707C33.6154 37.7367 34.8682 36.6938 36.3388 36.0751C37.8094 35.4565 39.431 35.2902 40.9966 35.5974C42.5621 35.9046 44.0006 36.6715 45.1283 37.8001L45.3533 38.0251C45.8641 38.5402 46.4968 38.9178 47.1927 39.1228C47.8886 39.3277 48.625 39.3534 49.3335 39.1973C50.0305 39.051 50.6796 38.7318 51.221 38.269C51.7624 37.8063 52.1787 37.2148 52.4318 36.5491C53.674 33.2872 54.2679 29.8143 54.18 26.3251C53.9268 19.4716 51.1079 12.9634 46.2821 8.09046C41.4562 3.21753 34.9757 0.335573 28.125 0.0158197ZM48.3345 34.6658L48.303 34.6343C46.5443 32.8785 44.303 31.6856 41.8644 31.2072C39.4257 30.7289 36.8998 30.9867 34.6081 31.948C32.3165 32.9094 30.3625 34.5306 28.9949 36.6056C27.6273 38.6806 26.9078 41.1155 26.928 43.6006L26.982 49.5001C21.0146 49.4732 15.3024 47.0769 11.1018 42.8384C6.90119 38.5998 4.55641 32.8662 4.58327 26.8988C4.61012 20.9314 7.0064 15.2192 11.245 11.0186C15.4835 6.81799 21.2171 4.47322 27.1845 4.50007C27.4478 4.50007 27.7133 4.50007 27.9788 4.51357C33.6856 4.78162 39.0836 7.18373 43.1029 11.2439C47.1222 15.3041 49.4697 20.726 49.68 26.4353C49.7543 29.2334 49.3001 32.0204 48.3413 34.6501L48.3345 34.6658Z" fill="#2E3092"/>
</g>
<defs>
<clipPath id="clip0_8768_13647">
<rect width="54" height="54" fill="white"/>
</clipPath>
</defs>
</svg>
