<svg width="55" height="54" viewBox="0 0 55 54" fill="none" xmlns="http://www.w3.org/2000/svg">
<g clip-path="url(#clip0_8768_13640)">
<path d="M42.0664 16.603C41.6594 16.4869 41.288 16.2709 40.9858 15.9746C40.6836 15.6783 40.4603 15.3111 40.3362 14.9065C39.6472 12.5711 38.4915 10.3998 36.9391 8.5239C35.3867 6.64804 33.4698 5.10665 31.3045 3.993C29.1392 2.87934 26.7704 2.21659 24.3415 2.04484C21.9127 1.87308 19.4742 2.1959 17.1737 2.99376C14.8733 3.79162 12.7586 5.04793 10.9576 6.68666C9.15668 8.3254 7.70695 10.3125 6.69614 12.5277C5.68534 14.7429 5.13448 17.1401 5.07691 19.5744C5.01933 22.0086 5.45623 24.4292 6.36117 26.6897C6.56906 27.1655 6.61382 27.6966 6.48848 28.2004C6.36314 28.7042 6.07474 29.1524 5.66818 29.4752C3.87656 30.805 2.47778 32.5943 1.61987 34.654C0.761953 36.7136 0.476831 38.9668 0.794675 41.1752C1.2907 44.1607 2.84065 46.8694 5.16323 48.8097C7.48581 50.75 10.4271 51.7933 13.4532 51.7502H25.4164C26.0132 51.7502 26.5855 51.5132 27.0074 51.0912C27.4294 50.6693 27.6664 50.097 27.6664 49.5002C27.6664 48.9035 27.4294 48.3312 27.0074 47.9092C26.5855 47.4873 26.0132 47.2502 25.4164 47.2502H13.4532C11.5098 47.2974 9.61384 46.6468 8.10889 45.4163C6.60394 44.1859 5.58959 42.457 5.24967 40.543C5.03412 39.1361 5.20882 37.6971 5.75474 36.3827C6.30066 35.0683 7.19685 33.9289 8.34568 33.0887C9.5524 32.1869 10.4253 30.9096 10.8273 29.4578C11.2292 28.0059 11.1375 26.4616 10.5664 25.0675C9.43727 22.0856 9.37921 18.804 10.4022 15.784C11.2194 13.4183 12.6827 11.3287 14.6265 9.75198C16.5703 8.17525 18.9168 7.17437 21.4002 6.86274C21.9762 6.78858 22.5564 6.751 23.1372 6.75024C26.0466 6.74064 28.8808 7.6737 31.2155 9.40972C33.5502 11.1457 35.2597 13.5913 36.0882 16.3802C36.4116 17.4431 36.9942 18.4088 37.7837 19.1904C38.5732 19.972 39.5447 20.545 40.6107 20.8577C43.2195 21.6293 45.5304 23.1795 47.234 25.3006C48.9376 27.4218 49.9525 30.0128 50.1429 32.7267C50.3332 35.4406 49.69 38.1479 48.2993 40.4861C46.9086 42.8244 44.8368 44.682 42.3612 45.8102C41.9948 45.9978 41.6885 46.2846 41.4773 46.6379C41.266 46.9912 41.1583 47.3967 41.1664 47.8082C41.162 48.1805 41.2513 48.548 41.4259 48.8769C41.6005 49.2057 41.8549 49.4855 42.1658 49.6904C42.4766 49.8953 42.834 50.0189 43.2051 50.0497C43.5761 50.0806 43.949 50.0178 44.2894 49.867C53.5909 45.3962 58.6444 33.6355 50.7694 22.273C48.6011 19.4445 45.5298 17.4436 42.0664 16.603Z" fill="#2E3092"/>
<path d="M42.7574 37.5906C43.1792 37.1686 43.4162 36.5964 43.4162 35.9998C43.4162 35.4032 43.1792 34.831 42.7574 34.4091L39.1889 30.8406C37.9231 29.5751 36.2065 28.8643 34.4167 28.8643C32.6268 28.8643 30.9102 29.5751 29.6444 30.8406L26.0759 34.4091C25.6661 34.8334 25.4393 35.4018 25.4444 35.9917C25.4495 36.5817 25.6862 37.146 26.1033 37.5632C26.5205 37.9803 27.0848 38.217 27.6748 38.2221C28.2647 38.2272 28.8331 38.0004 29.2574 37.5906L32.1667 34.6813V51.7498C32.1667 52.3466 32.4037 52.9188 32.8257 53.3408C33.2477 53.7628 33.82 53.9998 34.4167 53.9998C35.0134 53.9998 35.5857 53.7628 36.0077 53.3408C36.4296 52.9188 36.6667 52.3466 36.6667 51.7498V34.6813L39.5759 37.5906C39.9979 38.0124 40.5701 38.2493 41.1667 38.2493C41.7633 38.2493 42.3355 38.0124 42.7574 37.5906Z" fill="#2E3092"/>
</g>
<defs>
<clipPath id="clip0_8768_13640">
<rect x="0.666504" width="54" height="54" fill="white"/>
</clipPath>
</defs>
</svg>
